<mxfile host="app.diagrams.net" modified="2023-06-06T18:53:28.549Z" agent="Mozilla/5.0 (Windows NT 10.0; Win64; x64) AppleWebKit/537.36 (KHTML, like Gecko) Chrome/113.0.0.0 Safari/537.36" etag="0AnZVtEGCITpFljy08-h" version="21.3.4" type="device">
  <diagram name="Page-1" id="2YBvvXClWsGukQMizWep">
    <mxGraphModel dx="450" dy="664" grid="1" gridSize="10" guides="1" tooltips="1" connect="1" arrows="1" fold="1" page="1" pageScale="1" pageWidth="850" pageHeight="1100" math="0" shadow="0">
      <root>
        <mxCell id="0" />
        <mxCell id="1" parent="0" />
        <mxCell id="tfG1T4KLS2V4km29eVIO-1" value="CredentialsChecker" style="shape=umlLifeline;perimeter=lifelinePerimeter;whiteSpace=wrap;html=1;container=0;dropTarget=0;collapsible=0;recursiveResize=0;outlineConnect=0;portConstraint=eastwest;newEdgeStyle={&quot;edgeStyle&quot;:&quot;elbowEdgeStyle&quot;,&quot;elbow&quot;:&quot;vertical&quot;,&quot;curved&quot;:0,&quot;rounded&quot;:0};" vertex="1" parent="1">
          <mxGeometry x="290" y="210" width="125" height="340" as="geometry" />
        </mxCell>
        <mxCell id="tfG1T4KLS2V4km29eVIO-2" value="doFilter(request, response, chain)" style="html=1;verticalAlign=bottom;startArrow=oval;endArrow=block;startSize=8;edgeStyle=elbowEdgeStyle;elbow=vertical;curved=0;rounded=0;" edge="1" parent="tfG1T4KLS2V4km29eVIO-1" target="tfG1T4KLS2V4km29eVIO-21">
          <mxGeometry relative="1" as="geometry">
            <mxPoint x="-130" y="70" as="sourcePoint" />
            <mxPoint x="45" y="70" as="targetPoint" />
          </mxGeometry>
        </mxCell>
        <mxCell id="tfG1T4KLS2V4km29eVIO-21" value="" style="html=1;points=[];perimeter=orthogonalPerimeter;outlineConnect=0;targetShapes=umlLifeline;portConstraint=eastwest;newEdgeStyle={&quot;edgeStyle&quot;:&quot;elbowEdgeStyle&quot;,&quot;elbow&quot;:&quot;vertical&quot;,&quot;curved&quot;:0,&quot;rounded&quot;:0};" vertex="1" parent="tfG1T4KLS2V4km29eVIO-1">
          <mxGeometry x="58" y="70" width="10" height="250" as="geometry" />
        </mxCell>
        <mxCell id="tfG1T4KLS2V4km29eVIO-9" value="Session" style="shape=umlLifeline;perimeter=lifelinePerimeter;whiteSpace=wrap;html=1;container=0;dropTarget=0;collapsible=0;recursiveResize=0;outlineConnect=0;portConstraint=eastwest;newEdgeStyle={&quot;edgeStyle&quot;:&quot;elbowEdgeStyle&quot;,&quot;elbow&quot;:&quot;vertical&quot;,&quot;curved&quot;:0,&quot;rounded&quot;:0};" vertex="1" parent="1">
          <mxGeometry x="460" y="210" width="100" height="340" as="geometry" />
        </mxCell>
        <mxCell id="tfG1T4KLS2V4km29eVIO-23" value="" style="html=1;points=[];perimeter=orthogonalPerimeter;outlineConnect=0;targetShapes=umlLifeline;portConstraint=eastwest;newEdgeStyle={&quot;edgeStyle&quot;:&quot;elbowEdgeStyle&quot;,&quot;elbow&quot;:&quot;vertical&quot;,&quot;curved&quot;:0,&quot;rounded&quot;:0};" vertex="1" parent="tfG1T4KLS2V4km29eVIO-9">
          <mxGeometry x="45" y="80" width="10" height="30" as="geometry" />
        </mxCell>
        <mxCell id="tfG1T4KLS2V4km29eVIO-29" value="" style="html=1;points=[];perimeter=orthogonalPerimeter;outlineConnect=0;targetShapes=umlLifeline;portConstraint=eastwest;newEdgeStyle={&quot;edgeStyle&quot;:&quot;elbowEdgeStyle&quot;,&quot;elbow&quot;:&quot;vertical&quot;,&quot;curved&quot;:0,&quot;rounded&quot;:0};" vertex="1" parent="tfG1T4KLS2V4km29eVIO-9">
          <mxGeometry x="45" y="140" width="10" height="30" as="geometry" />
        </mxCell>
        <mxCell id="tfG1T4KLS2V4km29eVIO-30" value="getAttribute(&quot;user&quot;)" style="html=1;verticalAlign=bottom;endArrow=block;edgeStyle=elbowEdgeStyle;elbow=vertical;curved=0;rounded=0;" edge="1" parent="tfG1T4KLS2V4km29eVIO-9" target="tfG1T4KLS2V4km29eVIO-29">
          <mxGeometry relative="1" as="geometry">
            <mxPoint x="-102" y="140" as="sourcePoint" />
            <Array as="points">
              <mxPoint x="-40" y="140" />
              <mxPoint x="-60" y="150" />
              <mxPoint x="-40" y="140" />
            </Array>
            <mxPoint x="70" y="140" as="targetPoint" />
          </mxGeometry>
        </mxCell>
        <mxCell id="tfG1T4KLS2V4km29eVIO-31" value="user" style="html=1;verticalAlign=bottom;endArrow=open;dashed=1;endSize=8;edgeStyle=elbowEdgeStyle;elbow=vertical;curved=0;rounded=0;" edge="1" parent="tfG1T4KLS2V4km29eVIO-9" source="tfG1T4KLS2V4km29eVIO-29">
          <mxGeometry x="0.0031" relative="1" as="geometry">
            <mxPoint x="-102" y="170" as="targetPoint" />
            <Array as="points">
              <mxPoint x="33" y="170" />
              <mxPoint x="-22" y="170" />
            </Array>
            <mxPoint x="48" y="170" as="sourcePoint" />
            <mxPoint as="offset" />
          </mxGeometry>
        </mxCell>
        <mxCell id="tfG1T4KLS2V4km29eVIO-13" value="alt" style="shape=umlFrame;whiteSpace=wrap;html=1;pointerEvents=0;width=55;height=20;" vertex="1" parent="1">
          <mxGeometry x="130" y="400" width="690" height="90" as="geometry" />
        </mxCell>
        <mxCell id="tfG1T4KLS2V4km29eVIO-14" value="[isNew() || user == null]" style="text;html=1;strokeColor=none;fillColor=none;align=center;verticalAlign=middle;whiteSpace=wrap;rounded=0;fontStyle=3;fontColor=#FF8000;" vertex="1" parent="1">
          <mxGeometry x="290" y="420" width="150" height="20" as="geometry" />
        </mxCell>
        <mxCell id="tfG1T4KLS2V4km29eVIO-22" value="isNew()" style="html=1;verticalAlign=bottom;endArrow=block;edgeStyle=elbowEdgeStyle;elbow=vertical;curved=0;rounded=0;" edge="1" parent="1" source="tfG1T4KLS2V4km29eVIO-21" target="tfG1T4KLS2V4km29eVIO-23">
          <mxGeometry relative="1" as="geometry">
            <mxPoint x="360" y="290" as="sourcePoint" />
            <Array as="points">
              <mxPoint x="420" y="290" />
              <mxPoint x="400" y="300" />
              <mxPoint x="420" y="290" />
            </Array>
            <mxPoint x="530" y="290" as="targetPoint" />
          </mxGeometry>
        </mxCell>
        <mxCell id="tfG1T4KLS2V4km29eVIO-25" value="true/false" style="html=1;verticalAlign=bottom;endArrow=open;dashed=1;endSize=8;edgeStyle=elbowEdgeStyle;elbow=vertical;curved=0;rounded=0;" edge="1" parent="1" source="tfG1T4KLS2V4km29eVIO-23" target="tfG1T4KLS2V4km29eVIO-21">
          <mxGeometry x="0.0031" relative="1" as="geometry">
            <mxPoint x="343" y="320" as="targetPoint" />
            <Array as="points">
              <mxPoint x="493" y="320" />
              <mxPoint x="438" y="320" />
            </Array>
            <mxPoint x="508" y="320" as="sourcePoint" />
            <mxPoint as="offset" />
          </mxGeometry>
        </mxCell>
        <mxCell id="tfG1T4KLS2V4km29eVIO-32" value="redirect" style="html=1;verticalAlign=bottom;endArrow=block;edgeStyle=elbowEdgeStyle;elbow=vertical;curved=0;rounded=0;" edge="1" parent="1" source="tfG1T4KLS2V4km29eVIO-21" target="tfG1T4KLS2V4km29eVIO-38">
          <mxGeometry relative="1" as="geometry">
            <mxPoint x="360" y="450" as="sourcePoint" />
            <Array as="points">
              <mxPoint x="422" y="450" />
              <mxPoint x="402" y="460" />
              <mxPoint x="422" y="450" />
            </Array>
            <mxPoint x="507" y="450" as="targetPoint" />
          </mxGeometry>
        </mxCell>
        <mxCell id="tfG1T4KLS2V4km29eVIO-38" value="index.html" style="shape=umlLifeline;perimeter=lifelinePerimeter;whiteSpace=wrap;html=1;container=0;dropTarget=0;collapsible=0;recursiveResize=0;outlineConnect=0;portConstraint=eastwest;newEdgeStyle={&quot;edgeStyle&quot;:&quot;elbowEdgeStyle&quot;,&quot;elbow&quot;:&quot;vertical&quot;,&quot;curved&quot;:0,&quot;rounded&quot;:0};" vertex="1" parent="1">
          <mxGeometry x="580" y="210" width="100" height="340" as="geometry" />
        </mxCell>
        <mxCell id="tfG1T4KLS2V4km29eVIO-39" value="" style="html=1;verticalAlign=bottom;endArrow=open;dashed=1;endSize=8;edgeStyle=elbowEdgeStyle;elbow=vertical;curved=0;rounded=0;" edge="1" parent="1" source="tfG1T4KLS2V4km29eVIO-21">
          <mxGeometry x="0.0031" relative="1" as="geometry">
            <mxPoint x="160" y="470" as="targetPoint" />
            <Array as="points">
              <mxPoint x="335" y="469.5" />
              <mxPoint x="280" y="469.5" />
            </Array>
            <mxPoint x="347" y="469.5" as="sourcePoint" />
            <mxPoint as="offset" />
          </mxGeometry>
        </mxCell>
        <mxCell id="tfG1T4KLS2V4km29eVIO-40" value="doFilter(request, response)" style="html=1;verticalAlign=bottom;endArrow=block;edgeStyle=elbowEdgeStyle;elbow=vertical;curved=0;rounded=0;" edge="1" parent="1" source="tfG1T4KLS2V4km29eVIO-21" target="tfG1T4KLS2V4km29eVIO-41">
          <mxGeometry relative="1" as="geometry">
            <mxPoint x="360" y="520" as="sourcePoint" />
            <Array as="points">
              <mxPoint x="422" y="520" />
              <mxPoint x="402" y="530" />
              <mxPoint x="422" y="520" />
            </Array>
            <mxPoint x="507" y="520" as="targetPoint" />
          </mxGeometry>
        </mxCell>
        <mxCell id="tfG1T4KLS2V4km29eVIO-41" value="Chain" style="shape=umlLifeline;perimeter=lifelinePerimeter;whiteSpace=wrap;html=1;container=0;dropTarget=0;collapsible=0;recursiveResize=0;outlineConnect=0;portConstraint=eastwest;newEdgeStyle={&quot;edgeStyle&quot;:&quot;elbowEdgeStyle&quot;,&quot;elbow&quot;:&quot;vertical&quot;,&quot;curved&quot;:0,&quot;rounded&quot;:0};" vertex="1" parent="1">
          <mxGeometry x="700" y="210" width="100" height="340" as="geometry" />
        </mxCell>
      </root>
    </mxGraphModel>
  </diagram>
</mxfile>
